<?xml version="1.0" encoding="iso-8859-1"?>
<!-- Uploaded to: SVG Repo, www.svgrepo.com, Generator: SVG Repo Mixer Tools -->
<svg fill="#000000" height="800px" width="800px" version="1.1" id="Layer_1" xmlns="http://www.w3.org/2000/svg" xmlns:xlink="http://www.w3.org/1999/xlink" 
	 viewBox="0 0 512 512" xml:space="preserve">
<g>
	<g>
		<path d="M348.337,141.847L270.424,8.282C267.424,3.152,261.935,0,256,0c-5.935,0-11.424,3.152-14.424,8.283l-77.913,133.565
			c-3.011,5.162-3.033,11.543-0.055,16.728c2.978,5.185,8.5,8.38,14.478,8.38h155.826c5.978,0,11.5-3.197,14.478-8.381
			C351.37,153.391,351.348,147.011,348.337,141.847z"/>
	</g>
</g>
<g>
	<g>
		<path d="M153.736,186.657l-47.997-95.994V61.217c0-9.488-7.923-17.133-17.51-16.677c-8.978,0.427-15.881,8.164-15.881,17.151
			v28.971L24.35,186.657c-5.702,11.403,2.59,24.821,15.34,24.821h98.706C151.146,211.478,159.438,198.062,153.736,186.657z"/>
	</g>
</g>
<g>
	<g>
		<path d="M487.65,186.657l-47.998-95.994V61.692c0-8.988-6.903-16.723-15.881-17.151c-9.588-0.456-17.51,7.189-17.51,16.677v29.446
			l-47.998,95.994c-5.702,11.403,2.59,24.821,15.34,24.821h98.706C485.059,211.478,493.351,198.062,487.65,186.657z"/>
	</g>
</g>
<g>
	<g>
		<path d="M489.739,278.261h-16.696V244.87H372.87v33.391h-66.783v-77.913H205.913v77.913H139.13V244.87H38.957v33.391H22.261
			c-9.217,0-16.696,7.479-16.696,16.696v200.348c0,9.217,7.479,16.696,16.696,16.696h194.783V406.261
			c0-21.515,17.441-38.957,38.957-38.957s38.957,17.441,38.957,38.957V512h194.783c9.217,0,16.696-7.479,16.696-16.696V294.957
			C506.435,285.739,498.956,278.261,489.739,278.261z M150.261,434.087H83.478v-33.391c0-18.413,14.978-33.391,33.391-33.391
			s33.391,14.978,33.391,33.391V434.087z M428.522,434.087h-66.783v-33.391c0-18.413,14.978-33.391,33.391-33.391
			s33.391,14.978,33.391,33.391V434.087z"/>
	</g>
</g>
</svg>